<svg width="17" height="16" viewBox="0 0 21 25" fill="none" xmlns="http://www.w3.org/2000/svg">
<path d="M9.5 23.8445V20.6735L7.8215 21.6695L7 21.1525V20.038L9.5 18.545V16.461L7.5 17.6865V15.4785L5.5 16.5255V19.5205L4.6735 20.1355L4 19.58V17.574L1.213 19.135L0 18.6355V17.371L2.8425 15.786L1 14.875V13.715L2.0615 13.1515L4.6685 14.6855L6.4745 13.6435L6.4335 13.611L4.601 12.5495L6.385 11.4355L4.5965 10.394L1.99 11.92L1 11.4355V10.282L2.771 9.293L0 7.7665V6.502L1.1605 5.945L4 7.5435V5.5055L4.7425 4.942L5.714 5.532L5.686 8.5845L7.5225 9.6455L7.539 7.49L9.5 8.5395V6.456L7 4.962V3.855L7.8215 3.33L9.5 4.326V1.162L10.497 0.5L11.5 1.162V4.326L13.453 3.3105L14.5 3.92V4.916L11.5 6.456V8.5395L13.5 7.406V9.673L15.5 8.631V5.369L16.2275 4.936L17 5.3685V7.452L19.921 5.912L21 6.521V7.7005L18.2525 9.2855L20 10.2625V11.3895L19.085 11.8875L16.4215 10.3085L14.582 11.4815L16.3565 12.5955L14.527 13.6565L16.413 14.6525L19.1075 13.1595L20 13.7675V14.8425L18.34 15.786L21 17.371V18.616L19.739 19.1345L17 17.6405V19.618L16.24 20.1425L15.5 19.618V16.617L13.5 15.5105V17.5945L11.5 16.4605V18.5445L14 20.0375V21.217L13.1765 21.669L11.5 20.674V23.845L10.497 24.5L9.5 23.8445ZM8.767 12.546L9.71 14H11.467L12.2735 12.546L11.4215 11H9.6645L8.767 12.546Z" fill="white"/>
</svg>
